<?xml version="1.0" encoding="utf-8"?>
<!-- Generator: Adobe Illustrator 28.1.0, SVG Export Plug-In . SVG Version: 6.00 Build 0)  -->
<svg version="1.1" id="Layer_1" xmlns="http://www.w3.org/2000/svg" xmlns:xlink="http://www.w3.org/1999/xlink" x="0px" y="0px"
	 viewBox="0 0 300 246.65" style="enable-background:new 0 0 300 246.65;" xml:space="preserve" filter="url(#shine)">
<defs>
  <filter id="shine">
    <feSpecularLighting result="specOut" specularExponent="30" lighting-color="white">
      <fePointLight x="-5000" y="-10000" z="20000" />
    </feSpecularLighting>
    <feComposite in="SourceGraphic" in2="specOut" operator="arithmetic" k1="0" k2="1" k3="1" k4="0" />
  </filter>
</defs>
<style type="text/css">
	.st0{fill:#FFFFFF;}
	.st1{fill-rule:evenodd;clip-rule:evenodd;fill:url(#SVGID_1_);}
	.st2{fill-rule:evenodd;clip-rule:evenodd;fill:url(#SVGID_00000087384225984536551080000009626126099306039962_);}
	.st3{fill-rule:evenodd;clip-rule:evenodd;fill:url(#SVGID_00000039837705775710130430000011109354017452862143_);}
	.st4{fill-rule:evenodd;clip-rule:evenodd;fill:url(#SVGID_00000162334752011203080020000006516098467760685731_);}
	.st5{fill-rule:evenodd;clip-rule:evenodd;fill:url(#SVGID_00000069386400770817505790000009501490306732329625_);}
	.st6{fill-rule:evenodd;clip-rule:evenodd;fill:#FFFFFF;}
	.st7{fill-rule:evenodd;clip-rule:evenodd;fill:url(#SVGID_00000026874123506683128050000017058436281424259218_);}
	.st8{fill-rule:evenodd;clip-rule:evenodd;fill:url(#SVGID_00000016073573064289118930000008622560204683574666_);}
	.st9{fill-rule:evenodd;clip-rule:evenodd;fill:url(#SVGID_00000133490739564306029420000010856801126311646863_);}
	.st10{fill-rule:evenodd;clip-rule:evenodd;fill:url(#SVGID_00000179635467947680934580000010866556480316376215_);}
	.st11{fill-rule:evenodd;clip-rule:evenodd;fill:url(#SVGID_00000061471886826998248830000013621430425452259238_);}
	.st12{fill-rule:evenodd;clip-rule:evenodd;fill:url(#SVGID_00000064334406585944677570000000768640795999743661_);}
	.st13{fill-rule:evenodd;clip-rule:evenodd;fill:url(#SVGID_00000117647777670928432100000017337133149881052075_);}
	.st14{fill-rule:evenodd;clip-rule:evenodd;fill:url(#SVGID_00000081610784930276996620000015921289609725796011_);}
	.st15{fill:url(#SVGID_00000114047870143522668210000006212064619099442597_);}
	.st16{fill-rule:evenodd;clip-rule:evenodd;fill:url(#SVGID_00000139278555681353096030000017200198618112466825_);}
</style>
<path class="st0" d="M31.79,96.69c2.53-11.49,9.56-35.77,30.43-57.96c28.57-30.39,63.85-36.39,74.62-37.8
	c11.31-1.39,39.74-3.33,70.41,11.96c25.02,12.48,39.48,30.4,46.03,39.76c6.8-1.48,13.6-2.96,20.4-4.44l-1.98,10.93L25.1,114.17
	l0.36,18.53l21.91-4.88c0.56-0.16,1.37-0.32,2.36-0.32c1,0,3.26,0.01,5,1.67c1.78,1.7,1.85,4.03,1.85,4.56
	c0.01,8.81,0.03,17.63,0.04,26.44c0.01,0.73-0.06,2.35-1.06,4.01c-0.23,0.38-1.01,1.6-2.5,2.5c-0.87,0.53-1.84,0.77-3.75,1.25
	c-1.08,0.27-1.99,0.45-2.6,0.56c-12.54,2.55-25.07,5.1-37.61,7.65L0,167.71c8.94-1.85,17.87-3.73,26.8-5.63
	c4.77-1.02,9.53-2.04,14.29-3.07c0.82-0.13,1.77-0.34,2.79-0.68c0.74-0.25,1.39-0.52,1.97-0.8c0.19-0.14,0.38-0.29,0.57-0.43
	l-0.35-19.13l-22.39,4.9c-1.08,0.28-2.02,0.41-2.72,0.46c-0.71,0.06-1.3,0.1-2.08,0c-0.94-0.12-1.76-0.23-2.5-0.83
	c-0.8-0.65-1.07-1.52-1.25-2.08c-0.26-0.82-0.27-1.55-0.25-2.01c-0.05-7.85-0.11-15.7-0.16-23.54c-0.17-2.35,0.44-4.04,0.82-4.88
	c1.49-3.29,4.47-4.75,5.83-5.42c1.34-0.66,2.53-0.98,3.35-1.16c72.6-16.12,145.2-32.25,217.81-48.37
	c-6.58-8.59-23.77-28.58-53.62-38.82c-21.44-7.36-40.18-6.51-50.63-5.24c-10.03,1.27-35.77,5.88-59.82,26.5
	C53.6,58.8,45.27,84.61,42.66,94.29C39.04,95.09,35.42,95.89,31.79,96.69z"/>
<path class="st0" d="M75.25,151.48l-0.03-5.88l15.64-3.38V126.2c-0.02-0.73-0.17-2.1-1.13-3.29c-1.53-1.9-4.48-2.54-7.36-1.52
	c-3.76,0.89-7.51,1.79-11.27,2.68c-0.82,0.34-2.78,1.28-4.29,3.42c-1.36,1.93-1.67,3.85-1.75,4.75c0.03,8.07,0.06,16.14,0.08,24.21
	c0.02,0.53,0.2,3.38,2.5,5.22c0.93,0.75,1.9,1.07,2.56,1.23c7.34-1.56,14.67-3.13,22.01-4.69l11.54-13.17L75.25,151.48z
	 M74.9,132.78l6.16-1.4l0.27,6.73l-6.28,1.18L74.9,132.78z"/>
<path class="st0" d="M103.99,156.96l-0.36-34.13l-5.94-9.13l5.05-0.9l6.14,3.46c4.45-0.98,8.9-1.96,13.36-2.94
	c0.86-0.2,1.58-0.33,2.08-0.42c3.2-0.52,4.23-0.15,4.58,0c0.32,0.13,0.82,0.35,1.25,0.83c0.5,0.57,0.64,1.18,0.83,2.08
	c0.12,0.59,0.25,1.43,0.23,2.46c0.09,3.71,0.19,7.42,0.28,11.13l10.34-2.08l-11.22,12.98l-3.98,0.65c-0.18,0.05-2.3,0.54-3.99-0.95
	c-1.52-1.34-1.48-3.21-1.47-3.46c0.06-4.29,0.12-8.58,0.18-12.88l-7.06,1.55l-0.16,28.93c-0.03,0.1-0.1,0.28-0.25,0.45
	c-0.18,0.19-0.37,0.28-0.47,0.32C110.28,155.59,107.13,156.27,103.99,156.96z"/>
<linearGradient id="SVGID_1_" gradientUnits="userSpaceOnUse" x1="66.7177" y1="154.3756" x2="99.402" y2="154.3756">
	<stop  offset="0.0281" style="stop-color:#82ABD5"/>
	<stop  offset="0.0996" style="stop-color:#76A2D0"/>
	<stop  offset="0.2474" style="stop-color:#6393C8"/>
	<stop  offset="0.3996" style="stop-color:#588AC3"/>
	<stop  offset="0.5618" style="stop-color:#5487C1"/>
	<stop  offset="0.6237" style="stop-color:#5487C1"/>
	<stop  offset="1" style="stop-color:#5487C1"/>
</linearGradient>
<path class="st1" d="M99.4,147.59l-25.63,5.77l0.09-5.73c-0.9,0.84-2.2,2.31-3.51,2.37c-1.35,0.06-2.6-0.39-3.57-1.19l0,0.6l0,0.71
	l0,0.71l0,0.7v0.7l0,0.7l0,1.93l-0.07,0.02l0.07,1.37l0,0.03l0.01,0.06l0.01,0.08l0.01,0.11l0.02,0.13l0.02,0.15l0.03,0.17
	l0.03,0.18l0.04,0.2l0.05,0.21l0.06,0.22l0.07,0.22l0.07,0.23l0.08,0.23l0.09,0.23l0.1,0.23l0.12,0.23l0.12,0.22l0.14,0.22l0.14,0.2
	l0.15,0.19l0.17,0.18l0.18,0.17l0.18,0.16l0.2,0.14l0.21,0.13l0.23,0.12l0.25,0.1l0.27,0.09l0.29,0.07l0.15,0.02l0.45-0.06l0.67-0.1
	l0.67-0.11l0.67-0.11l0.67-0.12l0.68-0.12l0.67-0.13l0.68-0.13l0.68-0.14l0.68-0.14l0.68-0.14l0.68-0.15l0.68-0.15l0.68-0.15
	l0.68-0.16l0.68-0.16l0.68-0.16l0.69-0.16l0.69-0.16l0.69-0.16l0.69-0.16l0.69-0.16l0.69-0.16l0.69-0.16l0.69-0.16l0.69-0.16
	l0.69-0.16l0.69-0.16l0.7-0.16l0.7-0.16l0.7-0.15l0.19-0.04L99.4,147.59L99.4,147.59z"/>
<linearGradient id="SVGID_00000062891080857868721070000005496732414418901930_" gradientUnits="userSpaceOnUse" x1="122.2919" y1="137.5798" x2="133.6833" y2="137.5798">
	<stop  offset="0.0281" style="stop-color:#82ABD5"/>
	<stop  offset="0.0996" style="stop-color:#76A2D0"/>
	<stop  offset="0.2474" style="stop-color:#6393C8"/>
	<stop  offset="0.3996" style="stop-color:#588AC3"/>
	<stop  offset="0.5618" style="stop-color:#5487C1"/>
	<stop  offset="0.6237" style="stop-color:#5487C1"/>
	<stop  offset="1" style="stop-color:#5487C1"/>
</linearGradient>
<path style="fill-rule:evenodd;clip-rule:evenodd;fill:url(#SVGID_00000062891080857868721070000005496732414418901930_);" d="
	M122.31,136.35c-0.43,4.78,9.38,5.13,11.38-1.13c-1.23,3.85-8.69,3.13-10.51,2.08L122.31,136.35z"/>
<linearGradient id="SVGID_00000155108144716289081400000015990287368385672108_" gradientUnits="userSpaceOnUse" x1="105.5345" y1="148.1102" x2="112.8481" y2="148.1102">
	<stop  offset="0.0281" style="stop-color:#82ABD5"/>
	<stop  offset="0.0996" style="stop-color:#76A2D0"/>
	<stop  offset="0.2474" style="stop-color:#6393C8"/>
	<stop  offset="0.3996" style="stop-color:#588AC3"/>
	<stop  offset="0.5618" style="stop-color:#5487C1"/>
	<stop  offset="0.6237" style="stop-color:#5487C1"/>
	<stop  offset="1" style="stop-color:#5487C1"/>
</linearGradient>
<path style="fill-rule:evenodd;clip-rule:evenodd;fill:url(#SVGID_00000155108144716289081400000015990287368385672108_);" d="
	M105.53,142.92l0.13,11.93l6.98-1.52l0-0.19l-0.01-0.88l0-0.88l0-0.88l0-0.88l0-0.88l-0.01-1.76l0-1.76l0-1.76l0.24-2.09
	c-0.91,0.82-2.35,2.68-3.67,2.74C107.81,144.17,106.53,143.71,105.53,142.92L105.53,142.92z"/>
<linearGradient id="SVGID_00000124849149275889285530000013879379867531727765_" gradientUnits="userSpaceOnUse" x1="3.1594" y1="163.3361" x2="55.4339" y2="163.3361">
	<stop  offset="0.0281" style="stop-color:#82ABD5"/>
	<stop  offset="0.0996" style="stop-color:#76A2D0"/>
	<stop  offset="0.2474" style="stop-color:#6393C8"/>
	<stop  offset="0.3996" style="stop-color:#588AC3"/>
	<stop  offset="0.5618" style="stop-color:#5487C1"/>
	<stop  offset="0.6237" style="stop-color:#5487C1"/>
	<stop  offset="1" style="stop-color:#5487C1"/>
</linearGradient>
<path style="fill-rule:evenodd;clip-rule:evenodd;fill:url(#SVGID_00000124849149275889285530000013879379867531727765_);" d="
	M48.18,153.67l0,0.47l0,0.56l0,0.57l0,0.56l-0.01,0.57l-0.01,0.94l-0.29,0.57l-0.2,0.3l-0.24,0.28l-0.27,0.25l-0.29,0.22l-0.31,0.19
	l-0.32,0.16l-0.35,0.15l-0.37,0.14l-0.4,0.13l-0.44,0.13l-0.48,0.13l-0.52,0.13l-0.57,0.14l-0.62,0.15l-0.68,0.15l-16.44,3.38
	l-0.86,0.18l-0.94,0.19l-1.01,0.2l-1.09,0.22l-1.18,0.23l-1.27,0.25l-1.36,0.27l-1.45,0.29l-1.55,0.31l-1.65,0.33l-1.76,0.36
	l-1.86,0.38l-1.98,0.41l-3.97,0.87l-0.25,0.05l0.36,0.33l0.3,0.26l0.3,0.27l0.3,0.27l0.3,0.27l0.3,0.27l0.3,0.27l0.3,0.26l0.3,0.27
	l0.3,0.27l0.29,0.27l0.3,0.27l0.3,0.27l0.3,0.27l0.3,0.27l0.3,0.27l0.3,0.27l0.29,0.27l0.29,0.27l0.29,0.27l0.29,0.27l0.26,0.24
	l2.32-0.47l0.82-0.16l0.82-0.16l2.45-0.5l2.45-0.49l0.82-0.17l0.82-0.16l2.45-0.49l2.45-0.5l0.82-0.16l0.82-0.17l17.16-3.65
	l0.77-0.16l2.3-0.48l0.79-0.16l0.5-0.09l0.45-0.09l0.43-0.09l0.42-0.1l0.4-0.1l0.38-0.11l0.37-0.11l0.35-0.12l0.33-0.13l0.32-0.13
	l0.3-0.14l0.28-0.14l0.26-0.15l0.25-0.15l0.23-0.16l0.22-0.17l0.2-0.18l0.19-0.19l0.18-0.2l0.17-0.21l0.16-0.22l0.15-0.23l0.14-0.25
	l0.13-0.26l0.12-0.28l0.11-0.3l0.1-0.32l0.08-0.35l0.07-0.37l0.06-0.39l0.05-0.42l0.03-0.45l0.04-0.85l0.04-0.87l0.03-0.87
	l0.03-0.87l0.02-0.87l0.02-0.87l0.09-2.41c-0.88,0.73-2.08,2.78-3.32,2.83C50.6,155.17,49.21,154.62,48.18,153.67L48.18,153.67z"/>
<linearGradient id="SVGID_00000079457902889513828720000014905918870141674383_" gradientUnits="userSpaceOnUse" x1="147.6721" y1="115.2132" x2="131.9039" y2="3.0168">
	<stop  offset="0" style="stop-color:#82ABD5"/>
	<stop  offset="0.4296" style="stop-color:#D3E0EF"/>
	<stop  offset="0.4463" style="stop-color:#C8D8EB"/>
	<stop  offset="0.4749" style="stop-color:#B8CDE5"/>
	<stop  offset="0.5066" style="stop-color:#9DBADB"/>
	<stop  offset="0.5519" style="stop-color:#7DA4D0"/>
	<stop  offset="0.5958" style="stop-color:#6794C8"/>
	<stop  offset="0.6372" style="stop-color:#598AC3"/>
	<stop  offset="0.6734" style="stop-color:#5487C1"/>
</linearGradient>
<path style="fill-rule:evenodd;clip-rule:evenodd;fill:url(#SVGID_00000079457902889513828720000014905918870141674383_);" d="
	M23.09,105.31c-1.74,0.75-6.12,3.39-6.14,6.9l-0.24,2.23l0,0.58l0,0.59l0,0.61l0.01,0.69l-0.14,1.93l0.01,0.93l0.01,0.94l0.01,0.88
	l0.01,0.83l0.01,0.78l0.01,0.73l0.01,0.69l0.01,0.66l0.01,0.62l0.01,0.59l0,7.14l7.18-1.34v-7.03l0-0.23l-0.01-0.58l-0.01-0.58
	l-0.01-0.58l-0.01-0.58l-0.01-0.58l-0.01-0.58l-0.01-0.58l-0.01-0.58l-0.01-0.58l-0.01-0.58l-0.01-0.58l-0.01-0.58l-0.01-0.58
	l-0.01-0.58l-0.01-0.58l-0.01-0.58l-0.01-0.58l-0.01-0.58l-0.02-1.87l247.02-55.24l1.38-7.47l-0.21,0.05l-19.06,4.21l-2.84-3.92
	l-2.3-2.98l-2.39-2.9l-2.48-2.83l-2.56-2.75l-2.64-2.67l-2.72-2.59l-2.8-2.5l-2.87-2.41l-2.95-2.33l-3.02-2.24l-3.09-2.14
	l-3.15-2.05l-3.22-1.95l-3.28-1.86l-3.34-1.76l-3.4-1.65l-3.46-1.55l-3.51-1.44l-3.56-1.34l-3.62-1.23l-3.66-1.11l-3.71-1
	l-3.75-0.88l-3.8-0.77l-3.83-0.65l-3.87-0.53l-3.91-0.4l-3.94-0.28l-3.97-0.15l-4-0.02l-4.03,0.11l-5.26,0.34l-5.19,0.56l-5.11,0.77
	l-5.04,0.98l-4.96,1.18l-4.88,1.38l-4.79,1.57L107.2,10l-4.6,1.95l-4.5,2.13l-4.39,2.3l-4.28,2.47l-4.17,2.64l-4.05,2.8l-3.93,2.96
	l-3.8,3.11l-3.67,3.25l-3.53,3.4l-3.39,3.53l-3.25,3.67L56.54,48l-2.94,3.92l-2.79,4.03l-2.62,4.15l-2.46,4.26l-2.29,4.36
	l-2.11,4.46l-1.93,4.55l-1.75,4.64l-1.56,4.73l-1.37,4.81l-0.58,2.43l7.42-1.64l0.09-0.34l0.36-1.28l0.38-1.27l0.39-1.27l0.41-1.26
	l0.42-1.25l0.44-1.25l0.45-1.24l0.46-1.24l0.48-1.23l0.49-1.22l0.51-1.22l0.52-1.21l0.53-1.21l0.55-1.2l0.56-1.19l0.57-1.18
	l0.59-1.18l0.6-1.17l0.61-1.16l0.62-1.15l0.64-1.15l0.65-1.14l0.66-1.13l0.67-1.12l0.68-1.11l0.7-1.1l0.71-1.1l0.72-1.09l0.73-1.08
	l0.74-1.07l0.43-0.6c1.79-2.54,3.84-5.23,6.21-7.98c1.58-1.83,3.15-3.52,4.68-5.07c0.52-0.53,1.03-1.06,1.55-1.59l1.92-1.88
	l1.96-1.83l2.01-1.79l2.05-1.74l2.08-1.69l2.12-1.64l2.16-1.59l2.2-1.54l2.24-1.49l2.27-1.43l2.31-1.38l2.34-1.32l2.38-1.27
	l2.41-1.21l2.45-1.16l2.48-1.1l2.51-1.04l2.54-0.98l2.57-0.93l2.6-0.86l2.63-0.81l2.66-0.74l2.69-0.68l2.72-0.62l2.74-0.56
	l2.77-0.49l2.8-0.43l2.82-0.36l2.85-0.3l2.87-0.23l2.9-0.16l3.65-0.1l3.63,0.01l3.61,0.12l3.58,0.24l3.55,0.34l3.52,0.45l3.49,0.56
	l3.46,0.66l3.42,0.77l3.38,0.87l3.34,0.97l3.3,1.07l3.26,1.16l3.21,1.26l3.17,1.35l3.12,1.44l3.07,1.53l3.02,1.62l2.96,1.71
	l2.91,1.79l2.85,1.88l2.79,1.96l2.73,2.04l2.67,2.12l2.6,2.2l2.54,2.27l2.47,2.35l2.4,2.42l2.33,2.49l2.26,2.56l2.18,2.63l3.65,4.67
	L23.09,105.31z"/>
<path class="st6" d="M187.16,136.3l-0.26-25.82h-9.68l0.22,28.27C180.64,137.83,183.91,137.09,187.16,136.3z"/>
<polygon class="st6" points="177.59,104.27 176.06,95.06 185.74,95.06 187.29,104.27 "/>
<path class="st0" d="M30.25,106.09c0.04-0.2,0.06-0.41,0.06-0.62c-0.01-0.53-0.16-1.03-0.4-1.46c-0.03-0.06-0.07-0.13-0.1-0.19
	c-0.02-0.04-0.05-0.08-0.07-0.11c-0.06-0.08-0.12-0.17-0.19-0.28l12.47-13.13l-12.95,12.67c-0.04-0.02-0.09-0.03-0.15-0.05
	c-0.5-0.33-1.09-0.52-1.74-0.51c-0.42,0.01-0.81,0.09-1.17,0.25l-9.82-9.4l9.16,9.8c-0.75,0.58-1.23,1.48-1.22,2.5
	c0.01,0.54,0.16,1.03,0.4,1.47l-12.62,14.68l13.34-13.8c0.54,0.45,1.24,0.73,2,0.72c1.21-0.01,2.23-0.73,2.73-1.75l9.09,8.24
	L30.25,106.09z"/>
<path class="st0" d="M234.78,27.58c0.03-0.2,0.04-0.41,0.03-0.62c-0.02-0.53-0.19-1.02-0.45-1.45c-0.04-0.06-0.07-0.13-0.11-0.19
	c-0.03-0.04-0.05-0.08-0.08-0.11c-0.06-0.08-0.12-0.16-0.2-0.27l7.13-9.05l-7.62,8.6c-0.04-0.01-0.09-0.03-0.15-0.05
	c-0.51-0.31-1.11-0.49-1.75-0.46c-0.42,0.02-0.81,0.12-1.16,0.29l-8.07-6.34l7.42,6.76c-0.73,0.6-1.18,1.52-1.14,2.54
	c0.02,0.54,0.19,1.02,0.45,1.45l-8.95,12.38l9.7-11.53c0.56,0.44,1.26,0.69,2.02,0.66c1.21-0.05,2.21-0.8,2.67-1.84l9.35,7.95
	L234.78,27.58z"/>
<path class="st6" d="M155.87,150.45c-3.77,0.84-7.48,1.66-11.13,2.46c-30.51,6.75-74.7,16.46-130.26,28.47
	c3.16,2.58,6.31,5.15,9.47,7.73c47.06-9.79,85.28-18.16,112.04-24.11c6.59-1.47,12.18-2.72,19.75-4.42
	C155.66,157.2,155.83,153.83,155.87,150.45z"/>
<path class="st6" d="M241.65,131.24c-26.49,6.05-49.81,11.3-70.95,16.02c-0.01,3.36-0.07,6.72-0.13,10.07
	c9.89-2.24,22.93-5.2,41.59-9.43c17.78-4.03,65-14.71,82.39-18.64c1.81-3.83,3.62-7.66,5.44-11.48
	C286.63,120.9,266.36,125.6,241.65,131.24z"/>
<g>
	
		<linearGradient id="SVGID_00000062186389158158850620000009868461715176013480_" gradientUnits="userSpaceOnUse" x1="14.4779" y1="169.8074" x2="300" y2="169.8074">
		<stop  offset="0.0281" style="stop-color:#82ABD5"/>
		<stop  offset="1" style="stop-color:#6A97C8"/>
	</linearGradient>
	<path style="fill-rule:evenodd;clip-rule:evenodd;fill:url(#SVGID_00000062186389158158850620000009868461715176013480_);" d="
		M155.66,150.5c-3.7,0.82-7.34,1.63-10.92,2.42c-30.51,6.75-74.7,16.46-130.26,28.47c3.16,2.58,6.31,5.15,9.47,7.73
		c47.06-9.79,85.28-18.16,112.04-24.11c6.62-1.47,12.23-2.73,19.84-4.45C155.78,157.2,155.72,153.85,155.66,150.5z"/>
</g>
<g>
	
		<linearGradient id="SVGID_00000077289870851149456790000009953909611108624532_" gradientUnits="userSpaceOnUse" x1="14.4779" y1="137.5164" x2="300" y2="137.5164">
		<stop  offset="0.0281" style="stop-color:#82ABD5"/>
		<stop  offset="1" style="stop-color:#6A97C8"/>
	</linearGradient>
	<path style="fill-rule:evenodd;clip-rule:evenodd;fill:url(#SVGID_00000077289870851149456790000009953909611108624532_);" d="
		M241.43,131.24c-26.42,6.01-49.7,11.24-70.82,15.93c-0.01,3.35-0.05,6.71-0.08,10.06c9.87-2.23,22.85-5.16,41.31-9.33
		c17.85-4.03,65.24-14.71,82.7-18.64c1.82-3.83,3.64-7.66,5.46-11.48C286.58,120.9,266.24,125.6,241.43,131.24z"/>
</g>
<path class="st6" d="M81.49,182.97c-1.85,0.07-3.31,0.46-4.26,0.79c-1.42,0.49-2.96,1.04-4.17,2.5c-0.4,0.48-0.87,1.05-1.07,1.92
	c-0.53,2.34,1.45,4.31,1.61,4.47c0.56,0.55,1.2,0.9,1.83,1.13c0.44,0.17,1.05,0.34,1.79,0.39c1.12,0.08,2.03-0.14,2.58-0.33
	c19.78-4.5,47.88-10.81,76.1-17.14c0.08-3.46,0.27-6.92,0.34-10.39L81.49,182.97z"/>
<path class="st6" d="M170.48,163.15c-0.02,3.43-0.02,6.86,0.04,10.29c47.41-10.62,91.05-20.34,91.05-20.34
	c-12.81,45.78-54.09,81.2-104.31,83.39c-36.34,1.59-69.36-14.16-91.17-39.77l4.15-0.86c-2.72-2.71-3.07-5.63-3.13-9.59
	c-18.39,3.52-23.53,5.03-38.74,8.03c2.19,1.85,2.7,2.23,11.27,8.08l15.26-3.25c23.71,30.28,61.51,49.21,102.81,47.41
	c56.54-2.47,102.6-42.81,114.66-95.46l0.45-0.13c4.14-0.97,13.93-3.33,13.93-3.33l6.72-11.85L170.48,163.15z"/>
<polygon class="st6" points="167.84,109.84 168.53,174.06 140.88,180.42 143.9,169.13 157.99,165.91 157.99,145.24 157.99,109.84 
	"/>
<path class="st6" d="M219.63,120.21c-0.17-6.64-0.35-13.27-0.52-19.91c0.14-2.18-0.91-4.25-2.75-5.35
	c-2.11-1.26-4.33-0.72-4.73-0.62c-4.3,0.93-8.59,1.85-12.89,2.78c-0.75,0.22-2.05,0.71-3.22,1.84c-0.88,0.84-1.31,1.68-1.67,2.4
	c-0.44,0.88-1.05,2.38-1.19,4.39c-0.04,3.82-0.06,7.69-0.06,11.58c0,3.52,0.02,7,0.06,10.46c-0.05,0.46-0.1,1.12-0.06,1.92
	c0.04,0.73,0.08,1.49,0.42,2.4c0.26,0.69,0.52,1.42,1.25,2c0.69,0.55,1.43,0.68,2.08,0.8c1.34,0.25,2.45,0.02,3.05-0.15l20.14-4.34
	l13.23-12.69L219.63,120.21z M209.41,122.81l-6.75,1.47l0.18-18.88l6.86-1.48L209.41,122.81z"/>
<linearGradient id="SVGID_00000020389086523678712700000010805872546964435587_" gradientUnits="userSpaceOnUse" x1="211.9139" y1="130.3822" x2="209.3938" y2="119.015">
	<stop  offset="0.0281" style="stop-color:#82ABD5"/>
	<stop  offset="0.0996" style="stop-color:#76A2D0"/>
	<stop  offset="0.2474" style="stop-color:#6393C8"/>
	<stop  offset="0.3996" style="stop-color:#588AC3"/>
	<stop  offset="0.5618" style="stop-color:#5487C1"/>
	<stop  offset="0.6237" style="stop-color:#5487C1"/>
	<stop  offset="1" style="stop-color:#5487C1"/>
</linearGradient>
<path style="fill-rule:evenodd;clip-rule:evenodd;fill:url(#SVGID_00000020389086523678712700000010805872546964435587_);" d="
	M227.48,120.23l-9.48,1.73l-0.15-3.92c-0.92,0.96-2.13,2.25-3.57,2.31c-1.26,0.05-2.44-0.33-3.38-1.02l-0.07,4.6l-9.86,2.15
	l0.03-4.55c-0.86,0.69-1.94,2.19-3.13,2.24c-1.46,0.06-2.81-0.46-3.81-1.36l0.04,7.03l0.01,0.34l0.02,0.32l0.03,0.3l0.03,0.28
	l0.04,0.27l0.05,0.25l0.05,0.23l0.06,0.21l0.06,0.19l0.07,0.17l0.07,0.15l0.07,0.14l0.08,0.12l0.08,0.11l0.08,0.1l0.09,0.09
	l0.09,0.08l0.1,0.08l0.11,0.07l0.12,0.07l0.13,0.06l0.14,0.06l0.16,0.05l0.18,0.05l0.19,0.04l0.21,0.04l0.23,0.03l0.25,0.02
	l0.27,0.01h0.28l0.3-0.01l0.22-0.01l20.64-4.44L227.48,120.23L227.48,120.23z"/>
<path class="st6" d="M168.08,119.34c-0.06-3.14-0.14-6.26-0.24-9.34c-0.13-0.93-0.61-3.38-2.68-4.63c-2-1.21-4.09-0.75-4.48-0.66
	c-4.41,0.95-8.83,1.9-13.24,2.85c-0.82,0.27-2.01,0.79-3.12,1.81c-2.14,1.94-2.51,4.61-2.75,6.19c-0.08,0.54-0.11,1.22-0.16,2.59
	c-0.09,2.25-0.05,3.89,0,5.99c0.08,3.39,0.12,5.09,0.12,5.39c-0.02,10.06-0.04,10.82-0.04,10.82c0,0.17-0.04,1.08,0.33,2.15
	c0.25,0.74,0.62,1.8,1.67,2.39c0.41,0.24,0.78,0.31,1.25,0.4c1.3,0.25,2.37,0.07,2.71,0.01c1.5-0.26,9.57-1.79,20.63-4.01
	C168.21,134.14,168.22,126.82,168.08,119.34z M157.8,133.61l-6.58,1.47v-18.87l6.86-1.48L157.8,133.61z"/>
<linearGradient id="SVGID_00000085928813779836876380000018095668550327489938_" gradientUnits="userSpaceOnUse" x1="86.5657" y1="206.6933" x2="168.9667" y2="142.3145">
	<stop  offset="0.0281" style="stop-color:#C9E2F4"/>
	<stop  offset="0.0616" style="stop-color:#C2DDF1"/>
	<stop  offset="0.2399" style="stop-color:#A0C3E3"/>
	<stop  offset="0.4221" style="stop-color:#85AFD7"/>
	<stop  offset="0.6073" style="stop-color:#72A1CF"/>
	<stop  offset="0.7975" style="stop-color:#6799CB"/>
	<stop  offset="1" style="stop-color:#6396C9"/>
</linearGradient>
<path style="fill-rule:evenodd;clip-rule:evenodd;fill:url(#SVGID_00000085928813779836876380000018095668550327489938_);" d="
	M166.83,139.58v33.34c-26.96,5.91-53.92,11.82-80.88,17.74l-7.74,1.55c-2.03,0.42-3.86-0.56-4.34-2.01
	c-0.43-1.27,0.31-2.48,0.45-2.69c0.41-0.48,1.09-1.14,2.08-1.67c1.56-0.83,3.03-0.87,3.75-0.85c26.45-5.97,52.91-11.94,79.37-17.92
	v-25.7c0.99,0.18,3.03,0.4,5.24-0.54C165.62,140.46,166.31,140,166.83,139.58z"/>
<linearGradient id="SVGID_00000115477008011525518340000017731401868727953838_" gradientUnits="userSpaceOnUse" x1="177.7811" y1="242.1851" x2="153.0456" y2="130.6102">
	<stop  offset="0.1382" style="stop-color:#93B6DB"/>
	<stop  offset="0.448" style="stop-color:#FFFFFF"/>
	<stop  offset="0.4582" style="stop-color:#F1F7FB"/>
	<stop  offset="0.4847" style="stop-color:#D2E6F3"/>
	<stop  offset="0.5137" style="stop-color:#B8D8EC"/>
	<stop  offset="0.5458" style="stop-color:#A5CDE7"/>
	<stop  offset="0.5825" style="stop-color:#97C5E3"/>
	<stop  offset="0.6278" style="stop-color:#8EC0E1"/>
	<stop  offset="0.7075" style="stop-color:#8CBFE0"/>
	<stop  offset="0.7221" style="stop-color:#85B8DC"/>
	<stop  offset="0.775" style="stop-color:#6FA2D0"/>
	<stop  offset="0.8334" style="stop-color:#6093C8"/>
	<stop  offset="0.9011" style="stop-color:#578AC3"/>
	<stop  offset="1" style="stop-color:#5487C1"/>
</linearGradient>
<path style="fill-rule:evenodd;clip-rule:evenodd;fill:url(#SVGID_00000115477008011525518340000017731401868727953838_);" d="
	M172.06,164.39c-0.11,2.35-0.12,4.7-0.11,7.05l91.97-20.55l-2.41,7.52l-1.47,4.25l-1.63,4.17l-1.79,4.1l-1.94,4.02l-2.09,3.93
	l-2.23,3.84l-2.38,3.75l-2.52,3.65l-2.66,3.55l-2.79,3.44l-2.91,3.33l-3.04,3.22l-3.16,3.1l-3.28,2.98l-3.4,2.85l-3.51,2.72
	l-3.62,2.59l-3.72,2.45l-3.82,2.31l-3.92,2.17l-4.01,2.02l-4.1,1.86l-4.19,1.71l-4.27,1.55l-4.35,1.38l-4.42,1.21l-4.5,1.04
	l-4.56,0.86l-4.63,0.68l-4.69,0.49l-4.74,0.31l-3.45,0.1l-3.42,0l-3.4-0.1l-3.38-0.2l-3.35-0.3l-3.32-0.39l-3.3-0.49l-3.27-0.58
	l-3.23-0.67l-3.2-0.77l-3.17-0.85l-3.13-0.94l-3.09-1.03l-3.06-1.11l-3.02-1.2l-2.97-1.28l-2.93-1.36l-2.88-1.44l-2.84-1.52
	L94,222.19l-2.74-1.67l-2.69-1.74l-2.64-1.82l-2.59-1.89l-2.53-1.96l-2.48-2.02l-2.42-2.09l-2.36-2.16l-2.3-2.22l-2.24-2.28
	L66.85,200l-3.9-4.45l4.29-0.89l-0.15-0.24l-0.18-0.32l-0.16-0.32l-0.15-0.32l-0.14-0.33l-0.13-0.33l-0.12-0.33l-0.11-0.33
	l-0.1-0.34l-0.09-0.34l-0.08-0.34l-0.07-0.34l-0.06-0.34l-0.06-0.34l-0.05-0.35l-0.04-0.35l-0.04-0.35l-0.03-0.35l-0.03-0.36
	l-0.02-0.31l-34.09,7.11l0.22,0.16l0.24,0.17l0.26,0.18l0.27,0.19l0.29,0.21l0.32,0.22l0.34,0.23l0.37,0.25l0.4,0.27l0.43,0.29
	l0.46,0.31l0.49,0.33l0.53,0.35l0.57,0.38l0.61,0.4l0.65,0.43l0.69,0.45l0.73,0.49l0.42,0.28l15.78-3.5l2.86,3.54l2.31,2.7
	l2.39,2.63l2.47,2.56l2.54,2.49l2.61,2.42l2.68,2.34l2.75,2.26l2.82,2.18l2.88,2.1l2.94,2.02l3,1.94l3.06,1.85l3.12,1.76l3.17,1.67
	l3.23,1.58l3.28,1.49l3.33,1.39l3.37,1.3l3.42,1.2l3.46,1.1l3.5,1l3.54,0.9l3.58,0.79l3.62,0.68l3.65,0.58l3.68,0.47l3.71,0.35
	l3.74,0.24l3.77,0.13l3.79,0.01l3.81-0.11l5.21-0.34l5.14-0.55l5.07-0.76l4.99-0.97l4.92-1.17l4.83-1.36l4.75-1.55l4.66-1.74
	l4.56-1.92l4.46-2.1l4.36-2.27l4.25-2.44l4.14-2.61l4.03-2.76l3.91-2.92l3.78-3.07l3.65-3.21l3.52-3.35l3.38-3.49l3.24-3.62
	l3.1-3.75l2.95-3.87l2.79-3.99l2.63-4.1l2.47-4.21l2.3-4.31l2.13-4.41l1.96-4.5l1.78-4.59l1.59-4.68l1.41-4.76l1.45-5.89l11.03-2.65
	l3.89-1.04l4.81-8.02L172.06,164.39z"/>
<path class="st0" d="M99.54,225.96c0.03-0.2,0.04-0.41,0.03-0.62c-0.02-0.54-0.19-1.02-0.45-1.45c-0.04-0.06-0.07-0.13-0.11-0.19
	c-0.03-0.04-0.05-0.08-0.08-0.11c-0.06-0.08-0.12-0.16-0.2-0.27l7.13-9.05l-7.62,8.6c-0.04-0.01-0.09-0.03-0.15-0.05
	c-0.51-0.31-1.11-0.49-1.75-0.46c-0.41,0.02-0.81,0.12-1.16,0.29l-8.07-6.34l7.42,6.76c-0.73,0.6-1.18,1.52-1.14,2.54
	c0.02,0.53,0.19,1.02,0.45,1.45l-8.95,12.38l9.7-11.53c0.56,0.44,1.26,0.69,2.02,0.66c1.21-0.05,2.21-0.8,2.67-1.84l10.59,7.24
	L99.54,225.96z"/>
<linearGradient id="SVGID_00000174570039498252253220000014405300160592242354_" gradientUnits="userSpaceOnUse" x1="178.179" y1="120.478" x2="185.4914" y2="120.478" gradientTransform="matrix(1.0003 7.501883e-03 7.501883e-03 1.1718 -0.5745 -13.1589)">
	<stop  offset="0.0281" style="stop-color:#82ABD5"/>
	<stop  offset="0.0996" style="stop-color:#76A2D0"/>
	<stop  offset="0.2474" style="stop-color:#6393C8"/>
	<stop  offset="0.3996" style="stop-color:#588AC3"/>
	<stop  offset="0.5618" style="stop-color:#5487C1"/>
	<stop  offset="0.6237" style="stop-color:#5487C1"/>
	<stop  offset="1" style="stop-color:#5487C1"/>
</linearGradient>
<path style="fill-rule:evenodd;clip-rule:evenodd;fill:url(#SVGID_00000174570039498252253220000014405300160592242354_);" d="
	M178.53,123.92l0.22,12.51l6.97-1.55l0-0.19l-0.01-0.92l-0.01-0.92l-0.01-0.92l-0.01-0.92l-0.01-0.92l-0.02-1.85l-0.02-1.85
	l-0.02-1.84l0.23-2.19c-0.9,0.86-2.33,2.79-3.65,2.84C180.81,125.24,179.53,124.76,178.53,123.92L178.53,123.92z"/>
<polygon class="st6" points="168.18,132.13 168.08,141.29 177.67,138.75 "/>
<g>
	<path class="st0" d="M252.91,122.42l-8.04-50.38c-0.13-0.84,0.68-1.52,1.48-1.24l23.85,8.37l19.45-18.55
		c0.65-0.62,1.74-0.26,1.88,0.64l8,50.13l-9.32,2.21l-6.02-37.73l-12.1,11.54c-0.31,0.29-0.75,0.39-1.15,0.25l-14.73-5.17
		l6.02,37.73L252.91,122.42z"/>
</g>
<linearGradient id="SVGID_00000093148357202950630950000010072843508103977884_" gradientUnits="userSpaceOnUse" x1="248.9341" y1="104.446" x2="261.0204" y2="104.446">
	<stop  offset="0.0281" style="stop-color:#82ABD5"/>
	<stop  offset="0.0996" style="stop-color:#76A2D0"/>
	<stop  offset="0.2474" style="stop-color:#6393C8"/>
	<stop  offset="0.3996" style="stop-color:#588AC3"/>
	<stop  offset="0.5618" style="stop-color:#5487C1"/>
	<stop  offset="0.6237" style="stop-color:#5487C1"/>
	<stop  offset="1" style="stop-color:#5487C1"/>
</linearGradient>
<path style="fill-rule:evenodd;clip-rule:evenodd;fill:url(#SVGID_00000093148357202950630950000010072843508103977884_);" d="
	M253.94,120.83l7.09-1.67l-5.08-31.09c-0.26,0.35-1.18,1.51-2.84,1.92c-2.19,0.54-3.91-0.65-4.17-0.83
	C250.6,99.71,252.27,110.27,253.94,120.83z"/>
<linearGradient id="SVGID_00000023272697160168117430000011522412801678352020_" gradientUnits="userSpaceOnUse" x1="286.4433" y1="95.6938" x2="298.5296" y2="95.6938">
	<stop  offset="0.0281" style="stop-color:#82ABD5"/>
	<stop  offset="0.0996" style="stop-color:#76A2D0"/>
	<stop  offset="0.2474" style="stop-color:#6393C8"/>
	<stop  offset="0.3996" style="stop-color:#588AC3"/>
	<stop  offset="0.5618" style="stop-color:#5487C1"/>
	<stop  offset="0.6237" style="stop-color:#5487C1"/>
	<stop  offset="1" style="stop-color:#5487C1"/>
</linearGradient>
<path style="fill-rule:evenodd;clip-rule:evenodd;fill:url(#SVGID_00000023272697160168117430000011522412801678352020_);" d="
	M291.44,112.07l7.09-1.67l-5.08-31.09c-0.26,0.35-1.18,1.51-2.84,1.92c-2.19,0.54-3.91-0.65-4.17-0.83
	C288.11,90.96,289.78,101.52,291.44,112.07z"/>
<polygon class="st0" points="238.42,109.76 235.36,106.2 230.87,104.85 234.43,101.8 235.77,97.3 238.83,100.86 243.32,102.21 
	239.76,105.26 "/>
<linearGradient id="SVGID_00000097482124402627882800000017003726820515336613_" gradientUnits="userSpaceOnUse" x1="238.2273" y1="108.5734" x2="236.0113" y2="98.7058">
	<stop  offset="0.0281" style="stop-color:#82ABD5;stop-opacity:0.2"/>
	<stop  offset="0.5285" style="stop-color:#84ADD6;stop-opacity:0.6119"/>
	<stop  offset="0.7088" style="stop-color:#8BB2DA;stop-opacity:0.7603"/>
	<stop  offset="0.8372" style="stop-color:#96BBE1;stop-opacity:0.866"/>
	<stop  offset="0.9404" style="stop-color:#A7C9EC;stop-opacity:0.9509"/>
	<stop  offset="1" style="stop-color:#B5D4F4"/>
</linearGradient>
<polygon style="fill:url(#SVGID_00000097482124402627882800000017003726820515336613_);" points="238.17,108.59 235.69,105.7 
	232.04,104.6 234.93,102.12 236.02,98.47 238.5,101.36 242.15,102.45 239.26,104.94 "/>
<linearGradient id="SVGID_00000011714441690491174780000004173630340264476554_" gradientUnits="userSpaceOnUse" x1="-2653.3389" y1="420.1247" x2="-2656.0071" y2="408.089" gradientTransform="matrix(-1.2859 0.114 0.0945 0.5438 -3271.2405 176.9304)">
	<stop  offset="0.0281" style="stop-color:#82ABD5;stop-opacity:0.2"/>
	<stop  offset="0.312" style="stop-color:#86AED7;stop-opacity:0.4337"/>
	<stop  offset="0.5739" style="stop-color:#91B7DE;stop-opacity:0.6492"/>
	<stop  offset="0.8262" style="stop-color:#A3C6E9;stop-opacity:0.857"/>
	<stop  offset="1" style="stop-color:#B5D4F4"/>
</linearGradient>
<polygon style="fill-rule:evenodd;clip-rule:evenodd;fill:url(#SVGID_00000011714441690491174780000004173630340264476554_);" points="
	178.38,103.02 177.4,96.15 185.03,96.21 185.86,103.05 "/>
</svg>
