<?xml version="1.0" encoding="UTF-8"?>
<svg id="uuid-10de5c54-532a-4c45-9713-03b82f2a93e2" data-name="Layer 5" xmlns="http://www.w3.org/2000/svg" xmlns:xlink="http://www.w3.org/1999/xlink" viewBox="0 0 250 225">
  <defs>
    <style>
      .uuid-bdcd8a22-4c14-403d-9ff2-eb6c67eb0a26, .uuid-20c2b5aa-895f-405e-b3a6-ac588c9ad2d3, .uuid-84e2e314-e0b2-4037-b174-2e245a687720, .uuid-27752a0a-58c9-4199-bdce-9385ac8652af, .uuid-deb60296-87f7-460f-b876-04c94f6af01c, .uuid-c60301da-2f37-4f2e-bf49-8ceb075656c6, .uuid-8069b04c-57d6-4721-9396-4ed893a11e5f, .uuid-6859e489-b3d6-4393-b560-78529ec4b2be, .uuid-f58e4d7f-97d8-4c9b-be7a-2e45097eac7a, .uuid-b8fee173-e7ee-4d31-9969-f903323cab3d, .uuid-d220d033-3bf3-40f5-80b8-c40f26917b7f, .uuid-846a02e0-e6e4-4597-a6ad-9ff542066dec, .uuid-abb0fbb1-e67e-4e5e-a55e-0c9573ec2e92, .uuid-dd7d1882-b1ba-40d4-935f-3c7fbdc89187, .uuid-0906a783-16cc-4d31-84a5-25705c395a6d, .uuid-deae407e-3d1a-418f-bfeb-9824a6832224, .uuid-10e2733a-83e4-4b70-8da3-eee65207025a {
        stroke-width: 0px;
      }

      .uuid-bdcd8a22-4c14-403d-9ff2-eb6c67eb0a26, .uuid-20c2b5aa-895f-405e-b3a6-ac588c9ad2d3, .uuid-84e2e314-e0b2-4037-b174-2e245a687720, .uuid-27752a0a-58c9-4199-bdce-9385ac8652af, .uuid-c60301da-2f37-4f2e-bf49-8ceb075656c6, .uuid-8069b04c-57d6-4721-9396-4ed893a11e5f, .uuid-6859e489-b3d6-4393-b560-78529ec4b2be, .uuid-f58e4d7f-97d8-4c9b-be7a-2e45097eac7a, .uuid-b8fee173-e7ee-4d31-9969-f903323cab3d, .uuid-d220d033-3bf3-40f5-80b8-c40f26917b7f, .uuid-846a02e0-e6e4-4597-a6ad-9ff542066dec, .uuid-abb0fbb1-e67e-4e5e-a55e-0c9573ec2e92, .uuid-dd7d1882-b1ba-40d4-935f-3c7fbdc89187, .uuid-0906a783-16cc-4d31-84a5-25705c395a6d, .uuid-10e2733a-83e4-4b70-8da3-eee65207025a {
        fill-rule: evenodd;
      }

      .uuid-bdcd8a22-4c14-403d-9ff2-eb6c67eb0a26, .uuid-deae407e-3d1a-418f-bfeb-9824a6832224 {
        fill: #fff;
      }

      .uuid-20c2b5aa-895f-405e-b3a6-ac588c9ad2d3 {
        fill: url(#uuid-33eb6848-4210-46f9-819e-cbf533bfa6fd);
      }

      .uuid-84e2e314-e0b2-4037-b174-2e245a687720 {
        fill: url(#uuid-26af04ab-5061-4a48-8a97-051e245d2430);
      }

      .uuid-27752a0a-58c9-4199-bdce-9385ac8652af {
        fill: url(#uuid-66502947-dec5-4f8f-a429-eac75dd6d094);
      }

      .uuid-deb60296-87f7-460f-b876-04c94f6af01c {
        fill: url(#uuid-468163c3-2c03-482f-9b5a-d1765a29d9f1);
      }

      .uuid-c60301da-2f37-4f2e-bf49-8ceb075656c6 {
        fill: url(#uuid-87095bb4-f215-4140-be52-dd0f805a083a);
      }

      .uuid-8069b04c-57d6-4721-9396-4ed893a11e5f {
        fill: url(#uuid-dd811848-a7b8-43fe-ab26-83ed63fbb287);
      }

      .uuid-6859e489-b3d6-4393-b560-78529ec4b2be {
        fill: url(#uuid-a698a3be-b148-4f5e-92e4-bf19875d4790);
      }

      .uuid-f58e4d7f-97d8-4c9b-be7a-2e45097eac7a {
        fill: url(#uuid-d30074ae-0cfc-4853-9474-9f08dfb38a0a);
      }

      .uuid-b8fee173-e7ee-4d31-9969-f903323cab3d {
        fill: url(#uuid-cc71b755-7eca-4d15-b83d-e50f91594421);
      }

      .uuid-d220d033-3bf3-40f5-80b8-c40f26917b7f {
        fill: url(#uuid-a6a6d1ed-8451-440f-97e1-786e634bf788);
      }

      .uuid-846a02e0-e6e4-4597-a6ad-9ff542066dec {
        fill: url(#uuid-4c95cd54-3c90-4d15-9074-e72042f2c92b);
      }

      .uuid-abb0fbb1-e67e-4e5e-a55e-0c9573ec2e92 {
        fill: url(#uuid-26a05f4a-77ee-48d2-8c0a-46a0d5e25e48);
      }

      .uuid-dd7d1882-b1ba-40d4-935f-3c7fbdc89187 {
        fill: url(#uuid-1f415ca0-5d9d-4302-9e63-b1da52ae5f7a);
      }

      .uuid-0906a783-16cc-4d31-84a5-25705c395a6d {
        fill: url(#uuid-b69a2e84-73dd-46c2-97dc-4441e9284305);
      }

      .uuid-10e2733a-83e4-4b70-8da3-eee65207025a {
        fill: url(#uuid-ffb47e7d-7289-427f-b09a-d6787a074d32);
      }
    </style>
    <linearGradient id="uuid-cc71b755-7eca-4d15-b83d-e50f91594421" x1="55.6" y1="138.09" x2="82.84" y2="138.09" gradientUnits="userSpaceOnUse">
      <stop offset=".03" stop-color="#82abd5"/>
      <stop offset=".1" stop-color="#75a1cf"/>
      <stop offset=".25" stop-color="#6392c7"/>
      <stop offset=".4" stop-color="#5789c2"/>
      <stop offset=".56" stop-color="#5487c1"/>
      <stop offset=".62" stop-color="#5487c1"/>
      <stop offset="1" stop-color="#5487c1"/>
    </linearGradient>
    <linearGradient id="uuid-66502947-dec5-4f8f-a429-eac75dd6d094" x1="101.91" y1="124.25" x2="111.4" y2="124.25" xlink:href="#uuid-cc71b755-7eca-4d15-b83d-e50f91594421"/>
    <linearGradient id="uuid-26af04ab-5061-4a48-8a97-051e245d2430" x1="87.95" y1="132.93" x2="94.04" y2="132.93" xlink:href="#uuid-cc71b755-7eca-4d15-b83d-e50f91594421"/>
    <linearGradient id="uuid-b69a2e84-73dd-46c2-97dc-4441e9284305" x1="2.63" y1="145.48" x2="46.2" y2="145.48" xlink:href="#uuid-cc71b755-7eca-4d15-b83d-e50f91594421"/>
    <linearGradient id="uuid-4c95cd54-3c90-4d15-9074-e72042f2c92b" x1="123.01" y1="105.65" x2="110.03" y2="13.34" gradientUnits="userSpaceOnUse">
      <stop offset="0" stop-color="#82abd5"/>
      <stop offset=".43" stop-color="#d3e0ef"/>
      <stop offset=".45" stop-color="#c7d7ea"/>
      <stop offset=".47" stop-color="#b8cde5"/>
      <stop offset=".51" stop-color="#9dbadb"/>
      <stop offset=".55" stop-color="#7da3cf"/>
      <stop offset=".6" stop-color="#6693c7"/>
      <stop offset=".64" stop-color="#588ac2"/>
      <stop offset=".67" stop-color="#5487c1"/>
    </linearGradient>
    <linearGradient id="uuid-1f415ca0-5d9d-4302-9e63-b1da52ae5f7a" x1="14.89" y1="150.91" x2="244.56" y2="150.91" gradientUnits="userSpaceOnUse">
      <stop offset=".03" stop-color="#82abd5"/>
      <stop offset="1" stop-color="#6a97c8"/>
    </linearGradient>
    <linearGradient id="uuid-26a05f4a-77ee-48d2-8c0a-46a0d5e25e48" x1="17.58" y1="124.31" x2="247.75" y2="124.31" xlink:href="#uuid-1f415ca0-5d9d-4302-9e63-b1da52ae5f7a"/>
    <linearGradient id="uuid-ffb47e7d-7289-427f-b09a-d6787a074d32" x1="176.59" y1="118.33" x2="174.5" y2="108.92" xlink:href="#uuid-cc71b755-7eca-4d15-b83d-e50f91594421"/>
    <linearGradient id="uuid-a6a6d1ed-8451-440f-97e1-786e634bf788" x1="72.19" y1="181.42" x2="140.63" y2="127.95" gradientUnits="userSpaceOnUse">
      <stop offset=".03" stop-color="#c9e2f4"/>
      <stop offset=".06" stop-color="#c1dcf0"/>
      <stop offset=".24" stop-color="#9fc3e2"/>
      <stop offset=".42" stop-color="#85afd7"/>
      <stop offset=".61" stop-color="#72a1cf"/>
      <stop offset=".8" stop-color="#6698ca"/>
      <stop offset="1" stop-color="#6396c9"/>
    </linearGradient>
    <linearGradient id="uuid-d30074ae-0cfc-4853-9474-9f08dfb38a0a" x1="148" y1="210.49" x2="127.53" y2="118.12" gradientUnits="userSpaceOnUse">
      <stop offset=".14" stop-color="#93b6db"/>
      <stop offset=".45" stop-color="#fff"/>
      <stop offset=".46" stop-color="#f0f7fb"/>
      <stop offset=".48" stop-color="#d1e5f2"/>
      <stop offset=".51" stop-color="#b8d7eb"/>
      <stop offset=".55" stop-color="#a4cce6"/>
      <stop offset=".58" stop-color="#96c4e2"/>
      <stop offset=".63" stop-color="#8ec0e0"/>
      <stop offset=".71" stop-color="#8cbfe0"/>
      <stop offset=".72" stop-color="#84b7db"/>
      <stop offset=".77" stop-color="#6fa2d0"/>
      <stop offset=".83" stop-color="#5f92c7"/>
      <stop offset=".9" stop-color="#5689c2"/>
      <stop offset="1" stop-color="#5487c1"/>
    </linearGradient>
    <linearGradient id="uuid-dd811848-a7b8-43fe-ab26-83ed63fbb287" x1="148.56" y1="111.76" x2="154.65" y2="111.76" gradientTransform="translate(-.64 -14.6) rotate(.43) scale(1 1.17) skewX(.93)" xlink:href="#uuid-cc71b755-7eca-4d15-b83d-e50f91594421"/>
    <linearGradient id="uuid-87095bb4-f215-4140-be52-dd0f805a083a" x1="207.45" y1="96.94" x2="217.52" y2="96.94" xlink:href="#uuid-cc71b755-7eca-4d15-b83d-e50f91594421"/>
    <linearGradient id="uuid-33eb6848-4210-46f9-819e-cbf533bfa6fd" x1="238.7" y1="89.73" x2="248.77" y2="89.73" xlink:href="#uuid-cc71b755-7eca-4d15-b83d-e50f91594421"/>
    <linearGradient id="uuid-468163c3-2c03-482f-9b5a-d1765a29d9f1" x1="198.51" y1="100.35" x2="196.69" y2="92.21" gradientUnits="userSpaceOnUse">
      <stop offset=".03" stop-color="#82abd5" stop-opacity=".2"/>
      <stop offset=".41" stop-color="rgba(130, 171, 213, .21)" stop-opacity=".21"/>
      <stop offset=".54" stop-color="rgba(132, 172, 214, .23)" stop-opacity=".23"/>
      <stop offset=".64" stop-color="rgba(135, 175, 216, .28)" stop-opacity=".28"/>
      <stop offset=".72" stop-color="rgba(139, 178, 218, .35)" stop-opacity=".35"/>
      <stop offset=".79" stop-color="rgba(145, 183, 222, .44)" stop-opacity=".44"/>
      <stop offset=".85" stop-color="rgba(151, 188, 226, .54)" stop-opacity=".54"/>
      <stop offset=".9" stop-color="rgba(160, 195, 231, .67)" stop-opacity=".67"/>
      <stop offset=".95" stop-color="rgba(169, 202, 237, .82)" stop-opacity=".82"/>
      <stop offset="1" stop-color="rgba(179, 211, 243, .98)" stop-opacity=".98"/>
      <stop offset="1" stop-color="#b5d4f4"/>
    </linearGradient>
    <linearGradient id="uuid-a698a3be-b148-4f5e-92e4-bf19875d4790" x1="-4076.3" y1="497.27" x2="-4078.5" y2="487.35" gradientTransform="translate(-5138.43 289.87) rotate(174.94) scale(1.29 -.55) skewX(-2.05)" gradientUnits="userSpaceOnUse">
      <stop offset=".03" stop-color="#82abd5" stop-opacity=".2"/>
      <stop offset=".18" stop-color="rgba(130, 171, 213, .21)" stop-opacity=".21"/>
      <stop offset=".32" stop-color="rgba(133, 174, 215, .26)" stop-opacity=".26"/>
      <stop offset=".45" stop-color="rgba(138, 177, 218, .33)" stop-opacity=".33"/>
      <stop offset=".58" stop-color="rgba(145, 183, 222, .44)" stop-opacity=".44"/>
      <stop offset=".71" stop-color="rgba(153, 190, 227, .57)" stop-opacity=".57"/>
      <stop offset=".84" stop-color="rgba(164, 198, 233, .74)" stop-opacity=".74"/>
      <stop offset=".96" stop-color="rgba(176, 208, 241, .93)" stop-opacity=".93"/>
      <stop offset="1" stop-color="#b5d4f4"/>
    </linearGradient>
  </defs>
  <path class="uuid-deae407e-3d1a-418f-bfeb-9824a6832224" d="M26.5,90.55c2.11-9.47,7.97-29.48,25.36-47.77,23.81-25.04,53.21-29.99,62.18-31.15,9.42-1.15,33.11-2.75,58.68,9.86,20.85,10.28,32.9,25.06,38.36,32.77,5.67-1.22,11.33-2.44,17-3.66l-1.65,9L20.91,104.95l.3,15.27,18.26-4.02c.47-.13,1.14-.27,1.96-.26.83,0,2.72.01,4.17,1.37,1.49,1.4,1.54,3.32,1.54,3.76.01,7.26.02,14.53.04,21.79.01.61-.05,1.94-.88,3.3-.19.31-.84,1.32-2.08,2.06-.72.43-1.53.64-3.13,1.03-.9.22-1.66.37-2.17.47-10.45,2.1-20.89,4.2-31.34,6.3l-7.58-6.94c7.45-1.53,14.89-3.07,22.33-4.64,3.97-.84,7.94-1.68,11.91-2.53.68-.11,1.47-.28,2.33-.56.61-.2,1.16-.43,1.64-.66.16-.12.31-.24.47-.36l-.29-15.77-18.66,4.04c-.9.23-1.68.34-2.26.38-.59.05-1.08.08-1.74,0-.79-.1-1.46-.19-2.08-.69-.66-.54-.89-1.25-1.04-1.72-.22-.68-.23-1.27-.2-1.65-.05-6.47-.09-12.94-.14-19.4-.14-1.94.37-3.33.69-4.02,1.25-2.71,3.73-3.91,4.86-4.47,1.11-.54,2.11-.81,2.79-.96,60.5-13.29,121-26.58,181.5-39.87-5.48-7.08-19.81-23.55-44.68-31.99-17.87-6.06-33.48-5.37-42.19-4.32-8.36,1.05-29.8,4.85-49.85,21.84-20.73,17.57-27.67,38.85-29.85,46.83-3.02.66-6.04,1.32-9.05,1.97Z"/>
  <path class="uuid-deae407e-3d1a-418f-bfeb-9824a6832224" d="M62.71,135.71l-.03-4.84,13.03-2.79v-13.21c-.02-.6-.15-1.73-.94-2.71-1.28-1.57-3.74-2.1-6.14-1.25-3.13.74-6.26,1.47-9.39,2.21-.69.28-2.32,1.05-3.58,2.82-1.14,1.59-1.39,3.18-1.46,3.91.02,6.65.05,13.3.07,19.95.02.44.16,2.79,2.08,4.3.78.61,1.58.88,2.13,1.01,6.11-1.29,12.23-2.58,18.34-3.87l9.61-10.85-23.74,5.32ZM62.42,120.29l5.13-1.15.23,5.54-5.23.97-.12-5.36Z"/>
  <path class="uuid-deae407e-3d1a-418f-bfeb-9824a6832224" d="M86.66,140.22l-.3-28.13-4.95-7.52,4.21-.74,5.12,2.85c3.71-.81,7.42-1.62,11.13-2.42.72-.17,1.32-.28,1.74-.34,2.67-.43,3.53-.12,3.82,0,.27.11.68.28,1.04.69.42.47.53.97.69,1.72.1.48.21,1.18.19,2.03.08,3.06.16,6.11.23,9.17l8.62-1.72-9.35,10.69-3.31.53c-.15.04-1.92.45-3.33-.78-1.26-1.1-1.23-2.65-1.22-2.86.05-3.54.1-7.07.15-10.61l-5.88,1.28-.14,23.84c-.02.08-.08.23-.21.37-.15.16-.31.23-.4.26-2.62.56-5.24,1.13-7.87,1.69Z"/>
  <path class="uuid-b8fee173-e7ee-4d31-9969-f903323cab3d" d="M82.84,132.5l-21.36,4.76.07-4.72c-.75.69-1.83,1.9-2.93,1.95-1.12.05-2.16-.32-2.98-.98v.49s0,.59,0,.59v.58s0,.58,0,.58v1.15s0,1.59,0,1.59h-.06s.06,1.15.06,1.15v.02s0,.05,0,.05v.07s.02.09.02.09v.11s.03.12.03.12l.02.14.03.15.04.16.04.17.05.18.06.18.06.19.07.19.08.19.09.19.1.19.1.18.11.18.12.17.13.16.14.15.15.14.15.13.17.12.18.11.19.1.2.08.23.07.25.06.12.02.37-.05.56-.08.56-.09.56-.09.56-.1.56-.1.56-.11.56-.11.56-.11.57-.12.57-.12.57-.12.57-.12.57-.13.57-.13.57-.13.57-.13.57-.13.57-.13.57-.13.58-.14.57-.14.58-.13.58-.14.58-.13.58-.13.58-.13.58-.13.58-.13.58-.13.58-.13.16-.03,6.62-7.46h0Z"/>
  <path class="uuid-27752a0a-58c9-4199-bdce-9385ac8652af" d="M101.92,123.24c-.36,3.94,7.82,4.22,9.48-.93-1.02,3.17-7.24,2.58-8.76,1.72l-.72-.79Z"/>
  <path class="uuid-84e2e314-e0b2-4037-b174-2e245a687720" d="M87.95,128.65l.1,9.83,5.82-1.25v-.15s0-.73,0-.73v-.72s0-.73,0-.73v-.72s0-.73,0-.73v-1.45s0-1.45,0-1.45v-1.45s.2-1.72.2-1.72c-.76.68-1.95,2.21-3.06,2.25-1.14.05-2.21-.33-3.04-.98h0Z"/>
  <path class="uuid-0906a783-16cc-4d31-84a5-25705c395a6d" d="M40.15,137.51v.38s0,.46,0,.46v.47s0,.46,0,.46v.47s-.01.77-.01.77l-.24.47-.17.25-.2.23-.23.2-.24.18-.26.15-.27.13-.29.12-.31.11-.33.11-.36.11-.4.11-.43.11-.48.11-.52.12-.57.13-13.7,2.79-.72.15-.78.15-.85.17-.91.18-.98.19-1.06.21-1.13.22-1.21.24-1.29.26-1.38.27-1.46.29-1.55.31-1.65.33-3.31.72-.21.04.3.27.25.22.25.22.25.22.25.22.25.22.25.22.25.22.25.22.25.22.25.22.25.22.25.22.25.22.25.22.25.22.25.22.24.22.24.22.24.22.24.22.22.2,1.93-.39.68-.14.68-.13,2.04-.41,2.04-.41.68-.14.68-.13,2.04-.41,2.04-.41.68-.13.68-.14,14.3-3.01.64-.13,1.92-.4.66-.14.42-.07.37-.07.36-.08.35-.08.33-.09.32-.09.31-.09.29-.1.28-.1.26-.11.25-.11.23-.12.22-.13.21-.13.19-.13.18-.14.17-.15.16-.15.15-.16.14-.17.13-.18.12-.19.11-.2.1-.22.1-.23.09-.25.08-.27.07-.29.06-.3.05-.32.04-.34.03-.37.04-.7.03-.72.03-.72.02-.72.02-.72.02-.72.08-1.99c-.74.61-1.73,2.29-2.76,2.33-1.26.06-2.42-.4-3.28-1.19h0Z"/>
  <path class="uuid-846a02e0-e6e4-4597-a6ad-9ff542066dec" d="M19.24,97.66c-1.45.62-5.1,2.79-5.12,5.68l-.2,1.84v.48s0,.49,0,.49v.5s0,.57,0,.57l-.12,1.59v.76s.02.77.02.77v.72s.02.68.02.68v.64s.02.6.02.6v.57s.02.54.02.54v.51s.02.49.02.49v5.89s5.98-1.11,5.98-1.11v-5.99s-.01-.48-.01-.48v-.48s-.02-.48-.02-.48v-.48s-.02-.48-.02-.48v-.48s-.02-.48-.02-.48v-.48s-.02-.48-.02-.48v-.48s-.02-.48-.02-.48v-.48s-.01-.48-.01-.48v-.48s-.01-.48-.01-.48v-.48s-.01-.48-.01-.48v-.48s-.02-1.54-.02-1.54l205.85-45.52,1.15-6.16-.18.04-15.89,3.47-2.37-3.23-1.92-2.45-1.99-2.39-2.06-2.33-2.13-2.26-2.2-2.2-2.27-2.13-2.33-2.06-2.39-1.99-2.46-1.92-2.51-1.84-2.57-1.77-2.63-1.69-2.68-1.61-2.74-1.53-2.79-1.45-2.83-1.36-2.88-1.28-2.93-1.19-2.97-1.1-3.01-1.01-3.05-.92-3.09-.82-3.13-.73-3.16-.63-3.19-.53-3.22-.43-3.26-.33-3.28-.23-3.31-.12-3.33-.02-3.36.09-4.38.28-4.32.46-4.26.64-4.2.81-4.13.97-4.06,1.14-3.99,1.3-3.91,1.45-3.83,1.61-3.75,1.75-3.66,1.9-3.57,2.04-3.47,2.17-3.37,2.31-3.27,2.44-3.17,2.56-3.06,2.68-2.94,2.8-2.83,2.91-2.71,3.02-2.58,3.13-2.45,3.23-2.32,3.33-2.19,3.42-2.05,3.51-1.91,3.59-1.76,3.68-1.61,3.75-1.46,3.83-1.3,3.9-1.14,3.96-.49,2,6.19-1.35.08-.28.3-1.05.32-1.05.33-1.04.34-1.04.35-1.03.36-1.03.38-1.03.39-1.02.4-1.02.41-1.01.42-1,.43-1,.44-.99.46-.99.47-.98.48-.98.49-.97.5-.96.51-.96.52-.95.53-.94.54-.94.55-.93.56-.92.57-.92.58-.91.59-.9.6-.9.61-.89.62-.88.36-.5c1.49-2.1,3.2-4.31,5.18-6.57,1.32-1.51,2.63-2.9,3.9-4.18.43-.44.86-.87,1.29-1.31l1.6-1.55,1.64-1.51,1.67-1.47,1.7-1.43,1.74-1.39,1.77-1.35,1.8-1.31,1.83-1.27,1.86-1.22,1.89-1.18,1.92-1.14,1.95-1.09,1.98-1.05,2.01-1,2.04-.95,2.06-.91,2.09-.86,2.12-.81,2.14-.76,2.17-.71,2.19-.66,2.22-.61,2.24-.56,2.26-.51,2.29-.46,2.31-.4,2.33-.35,2.35-.3,2.37-.24,2.39-.19,2.41-.13,3.05-.08h3.03s3.01.11,3.01.11l2.98.19,2.96.28,2.94.37,2.91.46,2.88.55,2.85.63,2.82.72,2.79.8,2.75.88,2.72.96,2.68,1.04,2.64,1.11,2.6,1.19,2.56,1.26,2.51,1.34,2.47,1.41,2.42,1.48,2.38,1.55,2.32,1.61,2.28,1.68,2.22,1.75,2.17,1.81,2.12,1.87,2.06,1.93,2,1.99,1.94,2.05,1.88,2.11,1.82,2.17,3.04,3.85L19.24,97.66Z"/>
  <path class="uuid-bdcd8a22-4c14-403d-9ff2-eb6c67eb0a26" d="M155.96,123.19l-.22-21.28h-8.07l.18,23.3c2.68-.76,5.4-1.36,8.1-2.02Z"/>
  <polygon class="uuid-bdcd8a22-4c14-403d-9ff2-eb6c67eb0a26" points="147.99 96.8 146.71 89.21 154.78 89.21 156.08 96.8 147.99 96.8"/>
  <path class="uuid-deae407e-3d1a-418f-bfeb-9824a6832224" d="M25.21,98.3c.03-.17.05-.34.05-.51,0-.44-.13-.85-.33-1.21-.03-.05-.05-.11-.09-.16-.02-.03-.04-.06-.06-.09-.05-.07-.1-.14-.16-.23l10.39-10.82-10.79,10.44s-.08-.03-.12-.04c-.41-.27-.91-.43-1.45-.42-.35,0-.67.08-.97.21l-8.19-7.75,7.63,8.08c-.62.47-1.02,1.22-1.01,2.06,0,.44.13.85.34,1.21l-10.52,12.1,11.12-11.37c.45.37,1.03.6,1.66.6,1.01-.01,1.86-.6,2.27-1.44l7.58,6.79-7.35-7.42Z"/>
  <path class="uuid-deae407e-3d1a-418f-bfeb-9824a6832224" d="M195.65,33.59c.03-.17.04-.34.03-.51-.02-.44-.16-.84-.37-1.2-.03-.05-.06-.1-.09-.15-.02-.03-.04-.06-.06-.09-.05-.06-.1-.13-.16-.22l5.94-7.46-6.35,7.09s-.08-.03-.12-.04c-.42-.26-.93-.4-1.46-.38-.35.02-.67.1-.97.24l-6.72-5.23,6.18,5.57c-.61.49-.99,1.25-.95,2.09.02.44.16.84.37,1.2l-7.46,10.21,8.08-9.5c.46.36,1.05.57,1.68.54,1.01-.04,1.84-.66,2.23-1.51l7.79,6.55-7.59-7.19Z"/>
  <path class="uuid-bdcd8a22-4c14-403d-9ff2-eb6c67eb0a26" d="M129.89,134.86c-3.14.69-6.24,1.37-9.27,2.03-25.43,5.56-62.25,13.57-108.55,23.46,2.63,2.12,5.26,4.25,7.89,6.37,39.22-8.07,71.07-14.96,93.37-19.87,5.49-1.21,10.15-2.24,16.46-3.65-.06-2.78.08-5.56.11-8.34Z"/>
  <path class="uuid-bdcd8a22-4c14-403d-9ff2-eb6c67eb0a26" d="M201.38,119.03c-22.07,4.99-41.5,9.31-59.12,13.2,0,2.77-.06,5.53-.1,8.3,8.24-1.85,19.1-4.28,34.66-7.77,14.82-3.32,54.16-12.12,68.66-15.36,1.51-3.15,3.02-6.31,4.53-9.46-11.14,2.56-28.03,6.43-48.62,11.09Z"/>
  <path class="uuid-dd7d1882-b1ba-40d4-935f-3c7fbdc89187" d="M14.89,161.03c36.36-7.78,72.01-15.48,105.99-22.92l7.61-1.67.1,5.74c-5.85,1.3-10.32,2.29-15.54,3.44-30.21,6.65-61.42,13.29-92.77,19.75l-5.39-4.35Z"/>
  <path class="uuid-abb0fbb1-e67e-4e5e-a55e-0c9573ec2e92" d="M143.38,138.89c.02-1.91.04-3.82.05-5.72,19.9-4.38,38.9-8.61,58.04-12.92,15.5-3.49,31.06-7.02,46.28-10.51l-3.16,6.58c-15,3.34-53.65,11.95-68.32,15.23l-32.88,7.34Z"/>
  <path class="uuid-bdcd8a22-4c14-403d-9ff2-eb6c67eb0a26" d="M67.91,161.66c-1.54.06-2.75.38-3.55.65-1.18.4-2.46.86-3.47,2.06-.33.39-.72.86-.89,1.59-.44,1.93,1.21,3.55,1.34,3.68.46.45,1,.74,1.53.93.37.14.88.28,1.49.32.93.07,1.69-.12,2.15-.27,16.48-3.71,39.9-8.91,63.42-14.12.06-2.85.23-5.71.29-8.56l-62.3,13.72Z"/>
  <path class="uuid-bdcd8a22-4c14-403d-9ff2-eb6c67eb0a26" d="M142.07,145.32c-.02,2.83-.02,5.65.03,8.48,39.51-8.75,75.88-16.76,75.88-16.76-10.68,37.73-45.08,66.92-86.93,68.72-30.28,1.31-57.8-11.67-75.97-32.78l3.45-.71c-2.27-2.23-2.56-4.64-2.61-7.9-15.32,2.9-19.61,4.15-32.29,6.62,1.83,1.52,2.25,1.84,9.39,6.66l12.72-2.68c19.76,24.96,51.26,40.56,85.67,39.07,47.12-2.03,85.5-35.28,95.55-78.67l.37-.11c3.45-.8,11.61-2.75,11.61-2.75l5.6-9.77-102.49,22.58Z"/>
  <polygon class="uuid-bdcd8a22-4c14-403d-9ff2-eb6c67eb0a26" points="139.87 101.39 140.44 154.32 117.4 159.56 119.92 150.25 131.66 147.59 131.66 130.56 131.66 101.39 139.87 101.39"/>
  <path class="uuid-bdcd8a22-4c14-403d-9ff2-eb6c67eb0a26" d="M183.02,109.94c-.14-5.47-.29-10.94-.43-16.41.12-1.8-.76-3.5-2.29-4.41-1.76-1.04-3.61-.6-3.94-.51-3.58.76-7.16,1.53-10.74,2.29-.62.18-1.71.59-2.68,1.52-.73.7-1.09,1.38-1.39,1.97-.37.73-.87,1.96-.99,3.62-.03,3.15-.05,6.33-.05,9.54,0,2.9.02,5.77.05,8.62-.04.38-.09.93-.05,1.58.03.6.07,1.22.35,1.97.21.57.44,1.17,1.04,1.65.58.46,1.19.56,1.74.66,1.11.2,2.04.02,2.54-.12l16.78-3.57,11.02-10.46-10.95,2.06ZM174.51,112.08l-5.63,1.22.15-15.56,5.72-1.22-.24,15.57Z"/>
  <path class="uuid-10e2733a-83e4-4b70-8da3-eee65207025a" d="M189.57,109.95l-7.9,1.43-.13-3.23c-.76.79-1.77,1.86-2.97,1.91-1.05.05-2.03-.27-2.82-.84l-.06,3.79-8.22,1.77.03-3.75c-.71.57-1.61,1.8-2.61,1.84-1.21.05-2.34-.38-3.17-1.12l.04,5.79v.28s.02.27.02.27l.02.25.03.23.03.22.04.2.05.19.05.17.05.16.06.14.06.13.06.11.06.1.07.09.07.08.07.07.08.07.08.06.09.06.1.05.11.05.12.05.13.04.15.04.16.03.18.03.19.02.21.02h.22s.24,0,.24,0h.25s.18-.02.18-.02l17.2-3.66,7.39-7.15h0Z"/>
  <path class="uuid-bdcd8a22-4c14-403d-9ff2-eb6c67eb0a26" d="M140.07,109.22c-.05-2.59-.12-5.16-.2-7.7-.11-.76-.51-2.79-2.23-3.82-1.67-1-3.41-.62-3.73-.54-3.68.78-7.35,1.56-11.03,2.35-.68.22-1.67.65-2.6,1.49-1.78,1.6-2.09,3.8-2.29,5.1-.07.44-.09,1.01-.14,2.14-.08,1.85-.04,3.2,0,4.93.07,2.8.1,4.19.1,4.44-.02,8.29-.03,8.92-.03,8.92,0,.14-.03.89.28,1.78.21.61.52,1.48,1.39,1.97.35.19.65.25,1.04.33,1.08.21,1.97.06,2.25.01,1.25-.22,7.98-1.48,17.19-3.3.11-5.89.11-11.92,0-18.09ZM131.5,120.98l-5.48,1.21v-15.55l5.72-1.22-.24,15.56Z"/>
  <path class="uuid-d220d033-3bf3-40f5-80b8-c40f26917b7f" d="M139.03,125.9v27.48c-22.47,4.87-44.93,9.74-67.4,14.62l-6.45,1.27c-1.69.35-3.21-.46-3.62-1.66-.35-1.04.26-2.04.37-2.22.34-.39.91-.94,1.74-1.37,1.3-.68,2.53-.72,3.13-.7,22.04-4.92,44.09-9.84,66.14-14.77v-21.18c.83.15,2.52.33,4.37-.45.73-.31,1.3-.69,1.74-1.03Z"/>
  <path class="uuid-f58e4d7f-97d8-4c9b-be7a-2e45097eac7a" d="M143.39,146.34c-.09,1.94-.1,3.87-.09,5.81l76.64-16.94-2,6.2-1.22,3.5-1.36,3.44-1.49,3.38-1.61,3.31-1.74,3.24-1.86,3.17-1.98,3.09-2.1,3.01-2.21,2.92-2.32,2.84-2.43,2.75-2.54,2.65-2.63,2.56-2.74,2.45-2.83,2.35-2.92,2.24-3.01,2.14-3.1,2.02-3.18,1.91-3.26,1.78-3.34,1.66-3.42,1.54-3.49,1.41-3.56,1.27-3.62,1.14-3.69,1-3.75.86-3.8.71-3.86.56-3.91.41-3.95.25-2.87.08h-2.85s-2.83-.09-2.83-.09l-2.81-.16-2.79-.25-2.77-.33-2.75-.4-2.72-.48-2.7-.56-2.67-.63-2.64-.7-2.61-.78-2.58-.85-2.55-.92-2.51-.99-2.48-1.06-2.44-1.12-2.4-1.19-2.37-1.25-2.33-1.31-2.29-1.38-2.24-1.44-2.2-1.5-2.16-1.56-2.11-1.61-2.06-1.67-2.01-1.72-1.97-1.78-1.91-1.83-1.86-1.88-1.81-1.93-3.25-3.67,3.58-.73-.12-.2-.15-.26-.14-.27-.13-.27-.12-.27-.11-.27-.1-.27-.09-.27-.08-.28-.07-.28-.07-.28-.06-.28-.05-.28-.05-.28-.04-.29-.04-.29-.03-.29-.03-.29-.02-.29-.02-.25-28.41,5.86.18.13.2.14.21.15.23.16.24.17.26.18.28.19.31.21.33.22.36.24.38.25.41.27.44.29.47.31.5.33.54.35.58.37.61.4.35.23,13.15-2.89,2.38,2.92,1.93,2.23,1.99,2.17,2.06,2.11,2.12,2.05,2.18,1.99,2.24,1.93,2.29,1.86,2.35,1.8,2.4,1.73,2.45,1.66,2.5,1.6,2.55,1.52,2.6,1.45,2.65,1.38,2.69,1.3,2.73,1.23,2.77,1.15,2.81,1.07,2.85.99,2.89.91,2.92.82,2.95.74,2.98.65,3.01.56,3.04.47,3.07.39,3.09.29,3.12.2,3.14.11h3.16s3.17-.08,3.17-.08l4.34-.28,4.28-.45,4.22-.63,4.16-.8,4.1-.96,4.03-1.12,3.96-1.28,3.88-1.43,3.8-1.59,3.72-1.73,3.63-1.87,3.55-2.01,3.45-2.15,3.35-2.28,3.26-2.41,3.15-2.53,3.04-2.65,2.93-2.76,2.82-2.88,2.7-2.98,2.58-3.09,2.46-3.19,2.33-3.29,2.19-3.38,2.06-3.47,1.92-3.55,1.78-3.64,1.63-3.71,1.48-3.79,1.33-3.86,1.17-3.92,1.21-4.86,9.19-2.18,3.24-.85,4.01-6.61-98.81,21.91Z"/>
  <path class="uuid-deae407e-3d1a-418f-bfeb-9824a6832224" d="M82.95,197.08c.03-.17.04-.34.03-.51-.02-.44-.16-.84-.37-1.2-.03-.05-.06-.1-.09-.15-.02-.03-.04-.06-.06-.09-.05-.06-.1-.13-.16-.22l5.94-7.46-6.35,7.09s-.08-.03-.12-.04c-.42-.26-.93-.4-1.46-.38-.35.02-.67.1-.97.24l-6.73-5.23,6.18,5.57c-.61.49-.99,1.25-.95,2.09.02.44.16.84.37,1.2l-7.46,10.21,8.08-9.5c.46.36,1.05.57,1.68.54,1.01-.04,1.84-.66,2.23-1.51l8.82,5.96-8.62-6.6Z"/>
  <path class="uuid-8069b04c-57d6-4721-9396-4ed893a11e5f" d="M148.78,112.99l.18,10.31,5.81-1.27v-.16s-.01-.76-.01-.76v-.76s-.02-.76-.02-.76v-.76s-.02-.76-.02-.76l-.02-1.52v-1.52s-.03-1.52-.03-1.52l.19-1.8c-.75.71-1.94,2.3-3.04,2.34-1.14.04-2.21-.36-3.05-1.05h0Z"/>
  <polygon class="uuid-bdcd8a22-4c14-403d-9ff2-eb6c67eb0a26" points="140.15 119.76 140.07 127.31 148.06 125.21 140.15 119.76"/>
  <path class="uuid-deae407e-3d1a-418f-bfeb-9824a6832224" d="M210.76,111.76l-6.7-41.52c-.11-.69.57-1.25,1.23-1.02l19.87,6.9,16.21-15.29c.55-.51,1.45-.21,1.57.52l6.67,41.31-7.77,1.82-5.02-31.09-10.08,9.51c-.25.24-.62.32-.96.2l-12.27-4.26,5.02,31.09-7.77,1.82Z"/>
  <path class="uuid-c60301da-2f37-4f2e-bf49-8ceb075656c6" d="M211.61,110.44l5.9-1.37-4.23-25.62c-.21.29-.98,1.24-2.37,1.58-1.83.44-3.26-.54-3.47-.69,1.39,8.7,2.78,17.4,4.17,26.1Z"/>
  <path class="uuid-20c2b5aa-895f-405e-b3a6-ac588c9ad2d3" d="M242.87,103.23l5.9-1.37-4.23-25.62c-.21.29-.98,1.24-2.37,1.58-1.83.44-3.26-.54-3.47-.69,1.39,8.7,2.78,17.4,4.17,26.1Z"/>
  <polygon class="uuid-deae407e-3d1a-418f-bfeb-9824a6832224" points="198.68 101.32 196.13 98.39 192.39 97.28 195.35 94.76 196.48 91.06 199.02 93.99 202.77 95.1 199.8 97.62 198.68 101.32"/>
  <polygon class="uuid-deb60296-87f7-460f-b876-04c94f6af01c" points="198.47 100.36 196.41 97.97 193.37 97.07 195.77 95.03 196.68 92.02 198.75 94.4 201.79 95.3 199.39 97.35 198.47 100.36"/>
  <polygon class="uuid-6859e489-b3d6-4393-b560-78529ec4b2be" points="148.65 95.77 147.83 90.11 154.19 90.15 154.88 95.79 148.65 95.77"/>
</svg>