<?xml version="1.0" encoding="UTF-8"?>
<svg id="uuid-21ff9dae-d9f1-4fe9-8477-d8cd881efcf0" data-name="Layer_1" xmlns="http://www.w3.org/2000/svg" xmlns:xlink="http://www.w3.org/1999/xlink" viewBox="0 0 100 100">
  <defs>
    <style>
      .uuid-b4ca6fb2-d249-42bd-888a-ef90c26e94a3 {
        fill: #9dc0bc;
      }

      .uuid-b4ca6fb2-d249-42bd-888a-ef90c26e94a3, .uuid-714fa140-7051-48de-be1d-c84ba6f6db7e, .uuid-4a839711-bc47-4bd8-bab6-902f9b2a7f74 {
        opacity: .6;
      }

      .uuid-a603aef2-d6e0-4195-84cc-7de1852f3c05 {
        fill: url(#uuid-6ee0b728-2bf6-4736-904e-80dedd3a3109);
      }

      .uuid-714fa140-7051-48de-be1d-c84ba6f6db7e {
        fill: #baffdf;
      }

      .uuid-05a71bb1-70ee-4de3-b4c7-27837c51a3c0 {
        fill: #c5efff;
      }

      .uuid-4a839711-bc47-4bd8-bab6-902f9b2a7f74 {
        fill: #b2edc5;
      }

      .uuid-4d63c7a3-f7b0-4411-aa66-cf0a9f4bea04 {
        fill: url(#uuid-f7d16a0a-e66d-4cff-8835-f9d1a826eb41);
      }
    </style>
    <linearGradient id="uuid-6ee0b728-2bf6-4736-904e-80dedd3a3109" x1="55.93" y1="33.1" x2="81.88" y2="7.15" gradientUnits="userSpaceOnUse">
      <stop offset="0" stop-color="#fff" stop-opacity=".5"/>
      <stop offset="1" stop-color="#a1e1ff"/>
    </linearGradient>
    <linearGradient id="uuid-f7d16a0a-e66d-4cff-8835-f9d1a826eb41" x1="50.3" y1="43.32" x2="59.05" y2="29.07" xlink:href="#uuid-6ee0b728-2bf6-4736-904e-80dedd3a3109"/>
  </defs>
  <g>
    <path class="uuid-05a71bb1-70ee-4de3-b4c7-27837c51a3c0" d="M47.67,2.5c-7.54,8.77-16.04,20.3-23.63,34.79-2.47,4.71-4.61,9.28-6.47,13.68-7.23,17.05.54,37.16,17.71,44.1,4.26,1.72,8.9,2.59,13.68,2.42,6.85-.25,13.26-2.63,18.58-6.5,12.04-8.76,16.49-24.79,11.16-38.69-.01-.03-.03-.07-.04-.1C70.59,31.17,58.88,14.78,47.67,2.5Z"/>
    <path class="uuid-714fa140-7051-48de-be1d-c84ba6f6db7e" d="M76.39,65.35c0,15.74-12.76,28.5-28.5,28.5s-28.5-12.76-28.5-28.5h57Z"/>
    <path class="uuid-4a839711-bc47-4bd8-bab6-902f9b2a7f74" d="M19.39,65.35c0-5.26,1.47-10.48,4.23-14.96h48.53c2.76,4.48,4.24,9.69,4.23,14.96H19.39Z"/>
    <polygon class="uuid-b4ca6fb2-d249-42bd-888a-ef90c26e94a3" points="23.63 50.39 47.89 9 72.16 50.39 23.63 50.39"/>
  </g>
  <polygon class="uuid-a603aef2-d6e0-4195-84cc-7de1852f3c05" points="48.44 22.24 61.83 17.28 66.79 3.89 71.74 17.28 85.14 22.24 71.74 27.19 66.79 40.58 61.83 27.19 48.44 22.24"/>
  <polygon class="uuid-4d63c7a3-f7b0-4411-aa66-cf0a9f4bea04" points="58.48 28.33 57.74 35.55 62.73 40.81 55.52 40.07 50.26 45.06 51 37.85 46 32.59 53.22 33.33 58.48 28.33"/>
</svg>